<?xml version="1.0" encoding="UTF-8"?>
<svg version="1.1" viewBox="0 0 1600 1600" width="1280" height="1280" xmlns="http://www.w3.org/2000/svg">
<path transform="translate(743,1)" d="m0 0c1.35 1.69 1.35 1.69 2.71 4.06 0.757 1.29 0.757 1.29 1.53 2.61 0.52 0.913 1.04 1.83 1.58 2.77 3.43 5.92 6.9 11.7 10.7 17.4 2.37 3.53 4.63 7.13 6.89 10.7 0.506 0.802 1.01 1.6 1.53 2.43 3.57 5.67 7.12 11.4 10.7 17 13.5 21.7 27.6 42.7 42.6 63.4 7.38 10.2 14.6 20.5 21.7 30.9 5.75 8.47 11.7 16.7 18 24.7 0.893 1.14 1.78 2.28 2.68 3.41 1.85 2.36 3.69 4.71 5.55 7.06 1.83 2.32 3.65 4.64 5.46 6.96 4.88 6.24 9.81 12.4 14.8 18.6 4.09 5.01 8.14 10 12.1 15.1 0.67 0.855 0.67 0.855 1.35 1.73 2.25 2.87 4.49 5.76 6.73 8.64 8.67 11.2 17.8 21.8 27.3 32.3 3.97 4.39 7.85 8.85 11.7 13.4 5.55 6.52 11.2 12.9 17 19.2 2.98 3.21 5.8 6.49 8.53 9.93 3.73 4.63 7.68 8.99 11.8 13.3 1.04 1.1 1.04 1.1 2.1 2.23 8.97 9.46 18.2 18.7 27.4 27.9 1.93 1.93 3.86 3.86 5.79 5.8 4.01 4.01 8.03 8.03 12 12 4.62 4.61 9.24 9.23 13.9 13.9 4 4 8 8.01 12 12 2.38 2.37 4.75 4.75 7.12 7.12 2.64 2.64 5.28 5.28 7.92 7.91 0.769 0.771 1.54 1.54 2.33 2.34 4.08 4.06 8.24 7.96 12.6 11.7 1.84 1.62 3.57 3.32 5.28 5.07 2.33 2.37 4.72 4.59 7.25 6.75 4.07 3.5 7.83 7.27 11.6 11.1 2.58 2.66 2.58 2.66 5.68 4.64v2c0.531 0.202 1.06 0.405 1.61 0.613 3.43 1.99 5.9 4.73 8.64 7.57 4.19 4.28 8.42 8.39 13 12.3 2.45 2.15 4.71 4.48 6.99 6.8 1.78 1.75 3.62 3.37 5.52 4.98 3.41 2.93 6.59 6.05 9.75 9.25 3.07 3.12 6.17 6.16 9.5 9 3.85 3.28 7.38 6.85 10.9 10.5 3.19 3.22 6.5 6.22 9.95 9.15 3.73 3.34 7.19 6.96 10.7 10.5 2.38 2.46 2.38 2.46 5.42 4.36v2c0.885 0.395 0.885 0.395 1.79 0.798 2.31 1.25 3.78 2.55 5.6 4.43 0.934 0.952 0.934 0.952 1.89 1.92 0.651 0.671 1.3 1.34 1.97 2.03 4.44 4.52 8.88 8.92 13.7 13 3.34 2.98 6.45 6.21 9.59 9.39 3.35 3.38 6.81 6.55 10.4 9.63 3.25 2.9 6.27 6.03 9.3 9.15 2.01 1.96 4.01 3.77 6.14 5.58 5.59 4.88 10.8 10.1 16.1 15.4 1.09 1.08 2.17 2.17 3.26 3.25 2.26 2.25 4.52 4.51 6.78 6.77 2.9 2.9 5.8 5.79 8.71 8.68 2.24 2.23 4.47 4.46 6.71 6.69 1.07 1.07 2.14 2.14 3.22 3.2 1.49 1.48 2.98 2.97 4.46 4.46 0.846 0.845 1.69 1.69 2.56 2.56 1.81 2.05 1.81 2.05 1.81 4.05h2c1.27 1.26 1.27 1.26 2.81 3.12 3.4 4.01 6.96 7.86 10.6 11.7 4.76 5.08 9.24 10.3 13.6 15.8 1.87 2.24 3.81 4.24 5.91 6.25 5.07 4.94 9.26 10.6 13.6 16.2 1.64 2.12 3.29 4.23 4.96 6.33 15.4 19.5 29.1 39.7 40.6 61.7 0.487 0.888 0.975 1.78 1.48 2.69 6.27 11.8 10.1 24.4 12.8 37.5 0.159 0.758 0.319 1.52 0.483 2.3 2.67 13.9 2.24 27.8 1.45 41.8-0.0695 1.31-0.0695 1.31-0.14 2.66-0.787 14.8-2.07 29.4-4.11 44l-0.397 3.08c-8.09 62.6-31.7 123-68.6 174-0.543 0.754-1.09 1.51-1.65 2.28-8.35 11.5-17.4 22.3-26.9 33-1.48 1.71-2.9 3.46-4.31 5.22-0.722 0.825-1.44 1.65-2.19 2.5h-2c-0.242 0.567-0.483 1.13-0.732 1.72-1.52 2.74-3.34 4.59-5.56 6.8-0.86 0.858-1.72 1.72-2.61 2.6-0.901 0.889-1.8 1.78-2.73 2.69-0.878 0.877-1.76 1.75-2.66 2.66-5.08 5.05-10.3 9.87-15.7 14.5-1.61 1.45-3.21 2.91-4.81 4.38-5.25 4.73-10.7 9.2-16.2 13.6-1.12 0.914-2.24 1.83-3.36 2.74-16 13-32.6 24.8-49.8 36-2.81 1.84-5.62 3.69-8.43 5.53-28.6 18.8-57.5 37.3-87.9 53.1-15.7 8.17-30.2 17.1-44.5 27.6-1.82 1.32-3.65 2.63-5.47 3.95-1.72 1.25-3.44 2.49-5.15 3.74-0.776 0.564-1.55 1.13-2.35 1.71-3.18 2.34-6.18 4.65-8.92 7.5-0.694 0.695-1.39 1.39-2.1 2.11h-2v2c-1.22 1.23-1.22 1.23-3.06 2.75-13.8 11.8-26.4 24.4-37.7 38.5-1.48 1.83-3.01 3.62-4.58 5.38-11.3 12.9-14.5 28.5-13.6 45.3 0.535 4.62 1.3 9.18 2.12 13.8 0.224 1.27 0.449 2.54 0.68 3.84 6.88 37.6 20.5 73.6 40.9 106 1.33 2.34 1.33 2.34 1.33 4.34-2.52 1.83-5.05 3.55-7.66 5.23-1.66 1.09-3.33 2.18-4.99 3.27-1.32 0.858-1.32 0.858-2.66 1.73-4.42 2.9-8.82 5.84-13.2 8.78-1.8 1.2-3.6 2.4-5.4 3.6-0.897 0.598-1.79 1.2-2.72 1.81-2.75 1.83-5.5 3.67-8.25 5.5-1.34 0.896-1.34 0.896-2.71 1.81-1.76 1.17-3.51 2.34-5.27 3.51-3.62 2.41-7.24 4.83-10.9 7.25-10.1 6.75-10.1 6.75-14.4 9.5-0.889 0.578-1.78 1.16-2.7 1.75-2.18 1.25-2.18 1.25-4.18 1.25-1.31-1.83-1.31-1.83-2.79-4.39-0.544-0.931-1.09-1.86-1.65-2.82-0.864-1.5-0.864-1.5-1.75-3.04-0.591-1.02-1.18-2.04-1.79-3.08-1.17-2.01-2.33-4.02-3.49-6.03-1.7-2.92-3.46-5.81-5.22-8.7-22.9-39.6-35.9-85-42.8-130-0.385-2.47-0.796-4.93-1.22-7.38-6.99-45.3 6.02-90.6 32.4-127 2.34-3.14 4.82-6.16 7.33-9.17 0.744-0.945 1.49-1.89 2.25-2.86 6.27-7.76 13.2-14.8 20.2-21.9 0.727-0.735 0.727-0.735 1.47-1.48 6.66-6.72 13.6-12.9 21-18.8 1.29-1.05 2.58-2.1 3.86-3.15 1.15-0.929 2.3-1.86 3.45-2.79 0.823-0.672 0.823-0.672 1.66-1.36 10.9-8.75 22.5-16.5 34.2-24.3 0.638-0.426 1.28-0.852 1.93-1.29 12.7-8.44 25.6-16.4 38.7-24.2 5.04-3.02 10.1-6.08 15.1-9.14 1.87-1.14 3.74-2.28 5.61-3.42 0.917-0.559 1.83-1.12 2.78-1.69 3.8-2.32 7.61-4.63 11.4-6.95 1.92-1.17 3.84-2.34 5.75-3.5 4.82-2.94 9.65-5.87 14.5-8.79 12.5-7.58 24.9-15.4 37.1-23.5 0.604-0.399 1.21-0.799 1.83-1.21 2.49-1.65 4.98-3.31 7.45-4.97 1.87-1.25 3.76-2.5 5.65-3.73 6.98-4.57 13.6-9.48 20.2-14.6 2.82-2.21 5.66-4.4 8.49-6.6 2.33-1.81 4.65-3.62 6.97-5.43 2.69-2.1 5.4-4.19 8.12-6.25 9.35-7.13 17.9-15 26.3-23.2 0.7-0.678 1.4-1.36 2.12-2.06 8.16-7.94 15.9-15.9 22.9-24.9 0.949-1.16 1.9-2.32 2.86-3.48 43.7-53.2 64.6-121 65.5-190 0.0311-1.97 0.0835-3.95 0.137-5.92 0.0541-12.2-3.91-22.1-10.2-32.4-0.431-0.715-0.862-1.43-1.31-2.17-7.51-12.3-16.3-23.5-25.5-34.6-2.1-2.55-4.17-5.13-6.25-7.7-4.26-5.19-8.71-10.2-13.2-15.1-0.866-0.947-1.73-1.89-2.62-2.87-2.22-2.42-4.44-4.84-6.66-7.26-1.26-1.38-2.52-2.77-3.77-4.17-8.89-9.85-18.3-19.2-27.7-28.6-1.8-1.8-3.61-3.61-5.41-5.41-3.76-3.76-7.52-7.52-11.3-11.3-4.33-4.32-8.66-8.65-13-13-4.19-4.2-8.39-8.39-12.6-12.6-1.77-1.77-3.54-3.54-5.31-5.32-2.48-2.48-4.95-4.95-7.43-7.43-0.721-0.723-1.44-1.45-2.18-2.19-3.98-3.96-8.05-7.75-12.3-11.4-2.72-2.38-5.24-4.95-7.76-7.54-3.87-3.92-7.81-7.65-12-11.2-3.33-2.97-6.41-6.18-9.54-9.36-2.76-2.72-5.64-5.25-8.59-7.77-2.48-2.19-4.77-4.55-7.09-6.91-1.8-1.77-3.67-3.41-5.58-5.05-3.21-2.76-6.21-5.67-9.19-8.69-3.54-3.58-7.16-6.94-11-10.2-3.16-2.81-6.09-5.85-9.04-8.88-2.03-2.08-2.03-2.08-4.98-3.92v-2c-0.583-0.254-1.17-0.508-1.77-0.77-2.48-1.36-4.04-2.87-5.98-4.92-2.56-2.63-5.14-5.13-7.94-7.5-3.8-3.26-7.3-6.76-10.8-10.3-4.05-4.1-8.15-8.03-12.5-11.8-3.33-2.95-6.39-6.17-9.52-9.33-2.09-2.06-4.21-4-6.44-5.91-3.99-3.41-7.65-7.11-11.3-10.9-2.05-2-4.1-3.86-6.27-5.71-4.8-4.19-9.31-8.65-13.8-13.2-1.36-1.35-1.36-1.35-2.74-2.73-2.46-2.45-4.91-4.9-7.36-7.35-1.54-1.54-3.08-3.08-4.62-4.61-5.39-5.38-10.8-10.8-16.2-16.1-4.99-4.99-9.99-9.98-15-15-4.31-4.3-8.63-8.61-12.9-12.9-2.56-2.56-5.13-5.12-7.7-7.68-2.87-2.86-5.73-5.72-8.59-8.59-0.834-0.828-1.67-1.66-2.53-2.51-5.01-5.04-9.6-10.3-14-15.8-2.67-3.3-5.54-6.37-8.47-9.43-4.73-5.01-9.14-10.2-13.4-15.5-2.55-3.06-5.32-5.81-8.17-8.59-3.63-3.6-6.88-7.52-10.2-11.4-1.5-1.76-3-3.52-4.5-5.27-0.518-0.608-1.04-1.22-1.57-1.84-3.15-3.69-6.38-7.29-9.68-10.8-5.18-5.66-9.87-11.6-14.6-17.7-2.24-2.9-4.5-5.78-6.76-8.66-0.449-0.572-0.897-1.14-1.36-1.73-4.08-5.19-8.25-10.3-12.4-15.4-4.52-5.55-8.96-11.2-13.4-16.8-2.14-2.74-4.3-5.45-6.48-8.16-1.33-1.67-2.67-3.33-4-5-0.819-1.02-1.64-2.04-2.48-3.09-9.94-12.5-19.2-25.4-28.2-38.6-4.19-6.09-8.48-12.1-12.8-18.1-1.51-2.14-3.02-4.28-4.52-6.42-4.65-6.62-9.33-13.2-14.1-19.8-9.34-12.9-17.9-26.1-26.4-39.5-1.96-3.12-3.94-6.24-5.91-9.35-5.05-7.98-10.1-16-15.1-24-0.628-1-1.26-2.01-1.9-3.04-3.12-5-6.24-10-9.33-15-0.583-0.946-1.17-1.89-1.77-2.87-1.09-1.77-2.18-3.55-3.27-5.32-2.28-3.7-4.59-7.32-7.17-10.8-2.13-3.04-2.13-3.04-2.13-5.04 1.8-1.03 3.59-2.05 5.39-3.08 0.846-0.484 0.846-0.484 1.71-0.977 3.16-1.8 6.31-3.61 9.47-5.41 5.7-3.26 11.4-6.51 17.1-9.78 10.5-5.99 20.9-11.9 31.5-17.8 0.981-0.547 1.96-1.09 2.97-1.66 1.44-0.806 1.44-0.806 2.92-1.63 4.21-2.39 8.35-4.89 12.5-7.4 2.5-1.3 2.5-1.3 5.5-1.3z" fill="#000100"/>
<path transform="translate(211,863)" d="m0 0c4.39 0.444 7.78 1.64 11.7 3.62 1.1 0.548 2.2 1.1 3.33 1.66 1.19 0.604 2.38 1.21 3.57 1.81 1.25 0.625 2.49 1.25 3.74 1.87 3.29 1.65 6.57 3.31 9.85 4.96 2.62 1.32 5.25 2.64 7.87 3.96 13.1 6.56 26.1 13.2 39 20.1 3.93 2.09 7.9 4.07 11.9 6.05-1.91 6.05-4.16 11.8-6.67 17.7-13.7 32.2-22 66.6-26.3 101-0.154 1.15-0.154 1.15-0.312 2.32-3.14 23.8-4.52 50.5 2.31 73.7 0.236 0.841 0.472 1.68 0.715 2.55 8.83 30.9 26.7 58 53.3 76.5 1.06 0.74 2.11 1.48 3.2 2.24 21.3 14.5 42.3 21.8 68.1 17.5 28.8-5.81 56.5-17.7 81.7-32.7 1.74-0.969 3.49-1.93 5.25-2.88 0.893-0.486 1.79-0.972 2.71-1.47 1.6-0.871 3.21-1.74 4.82-2.61 13.3-7.21 26.3-15.1 39.2-23 4.99-3.05 10-6.07 15-9.07 5.57-3.33 11.1-6.68 16.7-10.1 0.585-0.356 1.17-0.711 1.77-1.08 1.2-0.731 2.4-1.46 3.6-2.19 9.94-6.05 19.9-12 29.9-17.9 5.55-3.27 11.1-6.6 16.6-9.97 12.3-7.56 24.8-14.8 37.5-21.8 1.49-0.827 1.49-0.827 3.01-1.67 40.4-22.3 81.9-40.7 126-54.3 1.59-0.495 1.59-0.495 3.22-0.999 25.5-7.76 52.4-12.5 79-14.1 1.28-0.0864 2.55-0.173 3.87-0.262 7.36-0.477 14.5-0.613 21.9-0.613v100c-2.77 1.38-5.23 1.33-8.32 1.54-1.34 0.101-2.67 0.203-4.01 0.306-1.06 0.0815-1.06 0.0815-2.15 0.165-23.6 1.86-46.7 5.72-69.2 13.2-2.36 0.78-4.74 1.51-7.11 2.24-31.7 9.89-62.1 24.7-91.2 40.5-1.01 0.55-2.03 1.1-3.07 1.67-15 8.15-29.7 16.7-44.1 25.6-4.65 2.87-9.31 5.7-14 8.53-1.92 1.17-3.83 2.33-5.75 3.5-9.54 5.8-19.1 11.6-28.6 17.4-4.31 2.61-8.61 5.23-12.9 7.84-6.84 4.16-13.7 8.31-20.5 12.5-0.755 0.458-1.51 0.916-2.29 1.39-4.22 2.56-8.46 5.1-12.7 7.61-0.844 0.5-1.69 1-2.56 1.52-19.8 11.7-39.6 23.1-60.6 32.6-1.8 0.827-3.59 1.69-5.38 2.55-36.3 17.5-75.6 29.8-116 29.7-0.737-2.11e-4 -1.47-4.23e-4 -2.23-6.41e-4 -12.4-0.0353-24.1-1.1-36.1-4.37-0.707-0.187-1.41-0.374-2.14-0.567-4.7-1.27-9.29-2.77-13.9-4.43-0.637-0.23-1.27-0.46-1.93-0.697-19.6-7.24-38.5-17.2-55.2-29.9-1.82-1.35-3.67-2.63-5.55-3.89-20.1-13.8-38.6-33.3-52-53.5-1.26-1.88-2.57-3.71-3.91-5.53-41.8-57.8-45.9-134-35.1-202 4.15-25 9.73-49.6 17.2-73.8 0.254-0.831 0.508-1.66 0.77-2.52 4.57-14.9 10.1-29.1 16.3-43.4 1.91-4.51 3.63-9.08 5.34-13.7 0.996-2.49 0.996-2.49 2-3.49z" fill="#000100"/>
</svg>
